<svg width="120" height="40" viewBox="0 0 120 40" fill="none" xmlns="http://www.w3.org/2000/svg">
<path d="M12.5724 22.744C12.5884 23.896 12.6204 25.024 12.6684 26.128C12.7324 27.216 12.8044 28.384 12.8844 29.632C12.3724 29.648 11.8284 29.632 11.2524 29.584C10.6764 29.552 10.1804 29.496 9.76438 29.416C9.49238 26.68 9.29238 24.208 9.16438 22C9.05238 19.776 8.99638 17.472 8.99638 15.088C8.99638 14.544 9.01238 13.936 9.04438 13.264C9.07638 12.576 9.11638 11.92 9.16438 11.296C9.99638 10.944 10.9084 10.672 11.9004 10.48C12.9084 10.288 13.8844 10.192 14.8284 10.192C16.7804 10.192 18.2844 10.608 19.3404 11.44C20.4124 12.256 20.9484 13.4 20.9484 14.872C20.9484 16.616 20.2204 18.168 18.7644 19.528C17.3244 20.888 15.2604 21.96 12.5724 22.744ZM17.2284 15.496C17.2284 14.488 16.9724 13.712 16.4604 13.168C15.9484 12.608 15.2044 12.328 14.2284 12.328C14.0204 12.328 13.8124 12.344 13.6044 12.376C13.3964 12.392 13.1884 12.424 12.9804 12.472C12.8684 13.736 12.7804 15.016 12.7164 16.312C12.6524 17.592 12.6044 18.928 12.5724 20.32C14.1244 19.936 15.2844 19.344 16.0524 18.544C16.8364 17.728 17.2284 16.712 17.2284 15.496ZM31.934 19.576C31.934 20.6 31.79 21.992 31.502 23.752C31.23 25.496 30.886 27.192 30.47 28.84C30.006 28.84 29.526 28.808 29.03 28.744C28.534 28.696 28.078 28.616 27.662 28.504C27.726 28.168 27.766 27.92 27.782 27.76C27.814 27.6 27.846 27.456 27.878 27.328C27.542 27.52 27.166 27.664 26.75 27.76C26.334 27.856 25.894 27.904 25.43 27.904C24.198 27.904 23.206 27.592 22.454 26.968C21.718 26.328 21.35 25.48 21.35 24.424C21.35 23.32 21.798 22.496 22.694 21.952C23.606 21.392 24.958 21.112 26.75 21.112C27.086 21.112 27.382 21.12 27.638 21.136C27.91 21.136 28.19 21.144 28.478 21.16C28.478 21.096 28.478 21.04 28.478 20.992C28.478 20.928 28.478 20.864 28.478 20.8C28.478 19.344 28.358 18.304 28.118 17.68C27.878 17.056 27.494 16.744 26.966 16.744C26.438 16.744 25.99 17.032 25.622 17.608C25.254 18.184 25.062 18.912 25.046 19.792C24.262 19.776 23.614 19.624 23.102 19.336C22.59 19.032 22.222 18.616 21.998 18.088C22.254 17.16 22.878 16.376 23.87 15.736C24.862 15.08 26.006 14.752 27.302 14.752C28.822 14.752 29.974 15.16 30.758 15.976C31.542 16.792 31.934 17.992 31.934 19.576ZM24.95 24.64C24.95 25.104 25.078 25.464 25.334 25.72C25.606 25.976 25.982 26.104 26.462 26.104C26.766 26.104 27.054 26.064 27.326 25.984C27.598 25.904 27.87 25.784 28.142 25.624C28.222 25.048 28.286 24.528 28.334 24.064C28.382 23.6 28.414 23.152 28.43 22.72C27.262 22.704 26.39 22.856 25.814 23.176C25.238 23.48 24.95 23.968 24.95 24.64ZM46.3518 28.36C46.0478 28.472 45.6318 28.576 45.1038 28.672C44.5758 28.768 44.0798 28.832 43.6158 28.864C43.3598 27.28 43.0958 25.832 42.8238 24.52C42.5678 23.192 42.2718 21.88 41.9358 20.584C41.4238 22.136 40.9678 23.432 40.5678 24.472C40.1678 25.512 39.7358 26.528 39.2718 27.52C38.9038 27.632 38.4238 27.736 37.8318 27.832C37.2558 27.912 36.7278 27.96 36.2478 27.976C35.4958 26.008 34.8638 24.024 34.3518 22.024C33.8558 20.008 33.4398 17.832 33.1038 15.496C33.7278 15.304 34.3598 15.152 34.9998 15.04C35.6558 14.928 36.3278 14.864 37.0158 14.848C37.1598 16.864 37.3358 18.616 37.5438 20.104C37.7678 21.592 38.0558 23.048 38.4078 24.472C38.9038 23.096 39.3358 21.76 39.7038 20.464C40.0718 19.152 40.3918 17.784 40.6638 16.36C41.3198 16.2 41.9278 16.088 42.4878 16.024C43.0478 15.944 43.5358 15.912 43.9518 15.928C44.3358 17.08 44.6798 18.36 44.9838 19.768C45.3038 21.176 45.6078 22.752 45.8958 24.496C46.3918 22.976 46.7998 21.504 47.1198 20.08C47.4398 18.64 47.6798 17.2 47.8398 15.76C48.4638 15.808 49.0078 15.896 49.4718 16.024C49.9358 16.152 50.3998 16.352 50.8638 16.624C50.2078 19.136 49.5198 21.32 48.7998 23.176C48.0958 25.016 47.2798 26.744 46.3518 28.36ZM63.0086 22.696C63.4406 22.728 63.8726 22.832 64.3046 23.008C64.7526 23.168 65.1446 23.376 65.4806 23.632C65.4486 24.896 65.1206 25.912 64.4966 26.68C63.8726 27.448 63.0086 27.832 61.9046 27.832C60.5606 27.832 59.5126 27.256 58.7606 26.104C58.0246 24.936 57.6566 23.264 57.6566 21.088C57.6566 20.384 57.6646 19.72 57.6806 19.096C57.7126 18.472 57.7606 17.872 57.8246 17.296C57.5206 17.264 57.2166 17.224 56.9126 17.176C56.6246 17.112 56.3526 17.04 56.0966 16.96C56.1126 16.56 56.1606 16.184 56.2406 15.832C56.3206 15.464 56.4246 15.176 56.5526 14.968C56.7446 15.032 56.9686 15.088 57.2246 15.136C57.4966 15.184 57.7846 15.224 58.0886 15.256C58.1686 14.712 58.2646 14.184 58.3766 13.672C58.4886 13.16 58.6086 12.664 58.7366 12.184C59.4086 12.184 60.0806 12.232 60.7526 12.328C61.4246 12.408 62.0006 12.528 62.4806 12.688C62.3686 13.072 62.2486 13.512 62.1206 14.008C62.0086 14.488 61.9046 14.992 61.8086 15.52C62.5286 15.536 63.1846 15.536 63.7766 15.52C64.3846 15.488 64.9286 15.448 65.4086 15.4C65.4086 15.672 65.3766 15.984 65.3126 16.336C65.2486 16.688 65.1606 17.032 65.0486 17.368C64.5846 17.448 64.0406 17.504 63.4166 17.536C62.8086 17.568 62.1606 17.576 61.4726 17.56C61.3766 18.312 61.3046 19.024 61.2566 19.696C61.2086 20.352 61.1846 20.968 61.1846 21.544C61.1846 22.968 61.2646 24.016 61.4246 24.688C61.5846 25.36 61.8246 25.696 62.1446 25.696C62.4166 25.696 62.6246 25.448 62.7686 24.952C62.9126 24.44 62.9926 23.688 63.0086 22.696ZM66.773 22.336C66.773 20.144 67.349 18.36 68.501 16.984C69.669 15.592 71.173 14.896 73.013 14.896C74.437 14.896 75.549 15.352 76.349 16.264C77.165 17.16 77.573 18.408 77.573 20.008C77.573 22.344 77.013 24.304 75.893 25.888C74.773 27.456 73.261 28.24 71.357 28.24C69.917 28.24 68.789 27.704 67.973 26.632C67.173 25.56 66.773 24.128 66.773 22.336ZM73.973 21.208C73.973 19.8 73.829 18.76 73.541 18.088C73.253 17.416 72.813 17.08 72.221 17.08C71.677 17.08 71.213 17.536 70.829 18.448C70.461 19.344 70.277 20.472 70.277 21.832C70.277 23.032 70.437 24.04 70.757 24.856C71.093 25.672 71.541 26.08 72.101 26.08C72.629 26.08 73.069 25.6 73.421 24.64C73.789 23.664 73.973 22.52 73.973 21.208ZM96.5767 19.6C96.5447 21.12 96.6167 22.608 96.7927 24.064C96.9847 25.52 97.2807 26.968 97.6807 28.408C97.3607 28.488 96.9847 28.552 96.5527 28.6C96.1367 28.664 95.6167 28.72 94.9927 28.768C94.8007 28.336 94.6167 27.888 94.4407 27.424C94.2807 26.96 94.1207 26.472 93.9607 25.96C93.3527 26.824 92.6647 27.464 91.8967 27.88C91.1447 28.296 90.2967 28.504 89.3527 28.504C87.7847 28.504 86.5367 27.864 85.6087 26.584C84.6967 25.304 84.2407 23.568 84.2407 21.376C84.2407 18.304 84.9207 15.744 86.2807 13.696C87.6567 11.648 89.4007 10.624 91.5127 10.624C92.9687 10.624 94.1287 11.104 94.9927 12.064C95.8567 13.024 96.3367 14.344 96.4327 16.024C95.8887 16.2 95.3207 16.328 94.7287 16.408C94.1527 16.488 93.5047 16.528 92.7847 16.528C92.6727 15.28 92.4487 14.368 92.1127 13.792C91.7927 13.2 91.3527 12.904 90.7927 12.904C89.9767 12.904 89.3127 13.584 88.8007 14.944C88.2887 16.304 88.0327 18.072 88.0327 20.248C88.0327 22.056 88.2327 23.416 88.6327 24.328C89.0487 25.224 89.6727 25.672 90.5047 25.672C91.1127 25.672 91.6567 25.448 92.1367 25C92.6167 24.552 93.0007 23.912 93.2887 23.08C93.2087 22.664 93.1367 22.216 93.0727 21.736C93.0247 21.256 92.9767 20.68 92.9287 20.008C93.4247 19.864 93.9687 19.76 94.5607 19.696C95.1527 19.632 95.8247 19.6 96.5767 19.6ZM98.9293 22.336C98.9293 20.144 99.5053 18.36 100.657 16.984C101.825 15.592 103.329 14.896 105.169 14.896C106.593 14.896 107.705 15.352 108.505 16.264C109.321 17.16 109.729 18.408 109.729 20.008C109.729 22.344 109.169 24.304 108.049 25.888C106.929 27.456 105.417 28.24 103.513 28.24C102.073 28.24 100.945 27.704 100.129 26.632C99.3293 25.56 98.9293 24.128 98.9293 22.336ZM106.129 21.208C106.129 19.8 105.985 18.76 105.697 18.088C105.409 17.416 104.969 17.08 104.377 17.08C103.833 17.08 103.369 17.536 102.985 18.448C102.617 19.344 102.433 20.472 102.433 21.832C102.433 23.032 102.593 24.04 102.913 24.856C103.249 25.672 103.697 26.08 104.257 26.08C104.785 26.08 105.225 25.6 105.577 24.64C105.945 23.664 106.129 22.52 106.129 21.208Z" fill="#FA6900"/>
</svg>
